<svg width="280" height="330" viewBox="0 0 280 330" fill="none" xmlns="http://www.w3.org/2000/svg">
<path fill-rule="evenodd" clip-rule="evenodd" d="M97 178H183V258L140 238L97 258V178Z" fill="#C5C5C5" style="mix-blend-mode:overlay"/>
<path fill-rule="evenodd" clip-rule="evenodd" d="M97 178H183V258L140 238L97 258V178Z" fill="#606060" style="mix-blend-mode:overlay"/>
<g filter="url(#filter0_dddd_142_780)">
<path d="M47.1516 67.6827C46.9031 60.8644 46.7789 57.4553 48.0825 53.8242C49.2006 50.7099 51.257 47.696 53.7492 45.5192C56.6548 42.9812 60.8743 41.5037 69.3133 38.5485C87.2695 32.2605 104.593 23.8276 120.925 14.0292C128.349 9.57563 132.061 7.34882 135.256 6.64734C138.428 5.95087 140.662 5.95087 143.834 6.64734C147.029 7.34882 150.741 9.57563 158.165 14.0292C174.497 23.8276 191.82 32.2605 209.777 38.5485C218.216 41.5037 222.435 42.9812 225.341 45.5192C227.833 47.696 229.889 50.7099 231.007 53.8242C232.311 57.4553 232.187 60.8644 231.938 67.6827C231.231 87.0864 227.729 115.924 214.928 141.952C198.048 176.275 169.854 198.789 153.148 209.88C149.48 212.315 147.646 213.532 144.19 214.357C141.795 214.929 137.295 214.929 134.899 214.357C131.444 213.532 129.61 212.315 125.942 209.88C109.235 198.789 81.0422 176.275 64.1618 141.952C51.3611 115.924 47.8588 87.0864 47.1516 67.6827Z" fill="black"/>
</g>
<mask id="mask0_142_780" style="mask-type:alpha" maskUnits="userSpaceOnUse" x="46" y="6" width="187" height="209">
<path d="M47.1516 67.6827C46.9031 60.8644 46.7789 57.4553 48.0825 53.8242C49.2006 50.7099 51.257 47.696 53.7492 45.5192C56.6548 42.9812 60.8743 41.5037 69.3133 38.5485C87.2695 32.2605 104.593 23.8276 120.925 14.0292C128.349 9.57563 132.061 7.34882 135.256 6.64734C138.428 5.95087 140.662 5.95087 143.834 6.64734C147.029 7.34882 150.741 9.57563 158.165 14.0292C174.497 23.8276 191.82 32.2605 209.777 38.5485C218.216 41.5037 222.435 42.9812 225.341 45.5192C227.833 47.696 229.889 50.7099 231.007 53.8242C232.311 57.4553 232.187 60.8644 231.938 67.6827C231.231 87.0864 227.729 115.924 214.928 141.952C198.048 176.275 169.854 198.789 153.148 209.88C149.48 212.315 147.646 213.532 144.19 214.357C141.795 214.929 137.295 214.929 134.899 214.357C131.444 213.532 129.61 212.315 125.942 209.88C109.235 198.789 81.0422 176.275 64.1618 141.952C51.3611 115.924 47.8588 87.0864 47.1516 67.6827Z" fill="black"/>
</mask>
<g mask="url(#mask0_142_780)">
<mask id="mask1_142_780" style="mask-type:alpha" maskUnits="userSpaceOnUse" x="46" y="6" width="187" height="209">
<path d="M47.1516 67.6827C46.9031 60.8644 46.7789 57.4553 48.0825 53.8242C49.2006 50.7099 51.257 47.696 53.7492 45.5192C56.6548 42.9812 60.8743 41.5037 69.3133 38.5485C87.2695 32.2605 104.593 23.8276 120.925 14.0292C128.349 9.57563 132.061 7.34882 135.256 6.64734C138.428 5.95087 140.662 5.95087 143.834 6.64734C147.029 7.34882 150.741 9.57563 158.165 14.0292C174.497 23.8276 191.82 32.2605 209.777 38.5485C218.216 41.5037 222.435 42.9812 225.341 45.5192C227.833 47.696 229.889 50.7099 231.007 53.8242C232.311 57.4553 232.187 60.8644 231.938 67.6827C231.231 87.0864 227.729 115.924 214.928 141.952C198.048 176.275 169.854 198.789 153.148 209.88C149.48 212.315 147.646 213.532 144.19 214.357C141.795 214.929 137.295 214.929 134.899 214.357C131.444 213.532 129.61 212.315 125.942 209.88C109.235 198.789 81.0422 176.275 64.1618 141.952C51.3611 115.924 47.8588 87.0864 47.1516 67.6827Z" fill="black"/>
</mask>
<g mask="url(#mask1_142_780)">
<rect x="-0.574219" y="-30.6694" width="280" height="280" fill="#A1ACC1"/>
<rect x="-0.574219" y="-30.6694" width="280" height="280" fill="url(#paint0_linear_142_780)" fill-opacity="0.6" style="mix-blend-mode:overlay"/>
<rect x="-0.574219" y="-30.6694" width="280" height="280" fill="url(#paint1_radial_142_780)" fill-opacity="0.6" style="mix-blend-mode:overlay"/>
<rect x="-0.574219" y="-30.6694" width="280" height="280" fill="black" fill-opacity="0.16" style="mix-blend-mode:overlay"/>
<rect x="-0.574219" y="-30.6694" width="280" height="280" fill="black" fill-opacity="0.12" style="mix-blend-mode:darken"/>
</g>
<g filter="url(#filter1_d_142_780)">
<mask id="mask2_142_780" style="mask-type:alpha" maskUnits="userSpaceOnUse" x="46" y="6" width="187" height="209">
<path fill-rule="evenodd" clip-rule="evenodd" d="M71.9573 46.0989C90.4975 39.6065 108.312 30.9255 125.041 20.8894C128.825 18.6194 131.404 17.0749 133.437 15.9923C135.468 14.9105 136.437 14.5786 136.971 14.4612C139.013 14.0129 140.077 14.0129 142.118 14.4612C142.653 14.5786 143.622 14.9105 145.653 15.9923C147.686 17.0749 150.265 18.6194 154.049 20.8894C170.778 30.9255 188.592 39.6065 207.132 46.0989C211.453 47.6118 214.322 48.6209 216.492 49.5475C218.593 50.4449 219.519 51.056 220.078 51.5444C221.544 52.825 222.82 54.6954 223.478 56.5275C224.153 58.4083 224.209 60.103 223.943 67.3914C223.255 86.2834 219.839 113.838 207.749 138.421C191.76 170.932 164.885 192.486 148.723 203.215C145.015 205.676 144.249 206.118 142.332 206.576C141.998 206.656 140.974 206.786 139.545 206.786C138.115 206.786 137.092 206.656 136.758 206.576C134.841 206.118 134.075 205.676 130.367 203.215C114.204 192.486 87.3293 170.932 71.3406 138.421C59.2505 113.838 55.8348 86.2834 55.1463 67.3914C54.8806 60.103 54.9366 58.4083 55.6119 56.5275C56.2696 54.6954 57.5459 52.825 59.0119 51.5444C59.5711 51.056 60.4966 50.4449 62.598 49.5475C64.768 48.6209 67.637 47.6118 71.9573 46.0989ZM47.1516 67.6827C46.9031 60.8644 46.7788 57.4553 48.0824 53.8242C49.2005 50.7099 51.257 47.696 53.7491 45.5192C56.6548 42.9813 60.8743 41.5037 69.3133 38.5485C87.2695 32.2605 104.592 23.8276 120.925 14.0293C128.349 9.57564 132.061 7.34883 135.256 6.64735C138.427 5.95088 140.662 5.95088 143.834 6.64735C147.029 7.34883 150.741 9.57564 158.164 14.0293C174.497 23.8276 191.82 32.2605 209.776 38.5485C218.215 41.5037 222.435 42.9813 225.341 45.5192C227.833 47.696 229.889 50.7099 231.007 53.8242C232.311 57.4553 232.187 60.8644 231.938 67.6827C231.231 87.0864 227.729 115.924 214.928 141.952C198.048 176.275 169.854 198.789 153.148 209.88C149.48 212.315 147.646 213.532 144.19 214.357C141.795 214.929 137.295 214.929 134.899 214.357C131.444 213.532 129.61 212.315 125.942 209.88C109.235 198.789 81.0421 176.275 64.1618 141.952C51.3611 115.924 47.8588 87.0864 47.1516 67.6827ZM133.069 34.6062C123.702 39.9913 114.364 45.3593 104.552 49.9833C94.9929 54.4879 85.1698 58.1506 75.3013 61.8233C73.7637 62.3956 72.9949 62.6817 72.4272 63.194C71.9338 63.6392 71.5437 64.2283 71.3265 64.8563C71.0766 65.5791 71.1125 66.3804 71.1844 67.983C72.1591 89.7146 76.0514 111.745 85.6981 131.36C96.9386 154.216 115.228 173.223 136.033 187.715C137.254 188.566 137.864 188.991 138.581 189.169C139.19 189.32 139.899 189.32 140.509 189.169C141.225 188.991 141.836 188.566 143.057 187.715C163.861 173.223 182.151 154.216 193.392 131.36C203.038 111.745 206.931 89.7146 207.905 67.983C207.977 66.3804 208.013 65.5791 207.763 64.8564C207.546 64.2283 207.156 63.6393 206.662 63.1941C206.095 62.6818 205.326 62.3956 203.788 61.8233C193.924 58.1518 184.072 54.4763 174.538 49.9833C164.726 45.3593 155.388 39.9913 146.02 34.6063C144.917 33.9718 143.813 33.3371 142.707 32.7034C141.561 32.0461 140.988 31.7175 140.372 31.5873C139.83 31.4728 139.26 31.4728 138.718 31.5873C138.102 31.7175 137.528 32.0461 136.382 32.7034C135.277 33.3371 134.173 33.9718 133.069 34.6062Z" fill="url(#paint2_linear_142_780)"/>
</mask>
<g mask="url(#mask2_142_780)">
<rect x="-0.574219" y="-30.6694" width="280" height="280" fill="#757575"/>
<rect x="-1.57422" y="-30.6694" width="280" height="280" fill="url(#paint3_linear_142_780)" fill-opacity="0.6" style="mix-blend-mode:overlay"/>
<rect x="-1.57422" y="-30.6694" width="280" height="280" fill="url(#paint4_radial_142_780)" fill-opacity="0.6" style="mix-blend-mode:overlay"/>
<g style="mix-blend-mode:soft-light">
<path fill-rule="evenodd" clip-rule="evenodd" d="M-0.574219 -30.6694H139.426V249.331H-0.574219V-30.6694Z" fill="url(#paint5_linear_142_780)" style="mix-blend-mode:lighten"/>
</g>
<g style="mix-blend-mode:soft-light">
<mask id="path-12-inside-1_142_780" fill="white">
<path fill-rule="evenodd" clip-rule="evenodd" d="M71.9573 46.0989C90.4975 39.6065 108.312 30.9255 125.041 20.8894C128.825 18.6194 131.404 17.0749 133.437 15.9923C135.468 14.9105 136.437 14.5786 136.971 14.4612C139.013 14.0129 140.077 14.0129 142.118 14.4612C142.653 14.5786 143.622 14.9105 145.653 15.9923C147.686 17.0749 150.265 18.6194 154.049 20.8894C170.778 30.9255 188.592 39.6065 207.132 46.0989C211.453 47.6118 214.322 48.6209 216.492 49.5475C218.593 50.4449 219.519 51.056 220.078 51.5444C221.544 52.825 222.82 54.6954 223.478 56.5275C224.153 58.4083 224.209 60.103 223.943 67.3914C223.255 86.2834 219.839 113.838 207.749 138.421C191.76 170.932 164.885 192.486 148.723 203.215C145.015 205.676 144.249 206.118 142.332 206.576C141.998 206.656 140.974 206.786 139.545 206.786C138.115 206.786 137.092 206.656 136.758 206.576C134.841 206.118 134.075 205.676 130.367 203.215C114.204 192.486 87.3293 170.932 71.3406 138.421C59.2505 113.838 55.8348 86.2834 55.1463 67.3914C54.8806 60.103 54.9366 58.4083 55.6119 56.5275C56.2696 54.6954 57.5459 52.825 59.0119 51.5444C59.5711 51.056 60.4966 50.4449 62.598 49.5475C64.768 48.6209 67.637 47.6118 71.9573 46.0989ZM47.1516 67.6827C46.9031 60.8644 46.7788 57.4553 48.0824 53.8242C49.2005 50.7099 51.257 47.696 53.7491 45.5192C56.6548 42.9813 60.8743 41.5037 69.3133 38.5485C87.2695 32.2605 104.592 23.8276 120.925 14.0293C128.349 9.57564 132.061 7.34883 135.256 6.64735C138.427 5.95088 140.662 5.95088 143.834 6.64735C147.029 7.34883 150.741 9.57564 158.164 14.0293C174.497 23.8276 191.82 32.2605 209.776 38.5485C218.215 41.5037 222.435 42.9813 225.341 45.5192C227.833 47.696 229.889 50.7099 231.007 53.8242C232.311 57.4553 232.187 60.8644 231.938 67.6827C231.231 87.0864 227.729 115.924 214.928 141.952C198.048 176.275 169.854 198.789 153.148 209.88C149.48 212.315 147.646 213.532 144.19 214.357C141.795 214.929 137.295 214.929 134.899 214.357C131.444 213.532 129.61 212.315 125.942 209.88C109.235 198.789 81.0421 176.275 64.1618 141.952C51.3611 115.924 47.8588 87.0864 47.1516 67.6827ZM133.069 34.6062C123.702 39.9913 114.364 45.3593 104.552 49.9833C94.9929 54.4879 85.1698 58.1506 75.3013 61.8233C73.7637 62.3956 72.9949 62.6817 72.4272 63.194C71.9338 63.6392 71.5437 64.2283 71.3265 64.8563C71.0766 65.5791 71.1125 66.3804 71.1844 67.983C72.1591 89.7146 76.0514 111.745 85.6981 131.36C96.9386 154.216 115.228 173.223 136.033 187.715C137.254 188.566 137.864 188.991 138.581 189.169C139.19 189.32 139.899 189.32 140.509 189.169C141.225 188.991 141.836 188.566 143.057 187.715C163.861 173.223 182.151 154.216 193.392 131.36C203.038 111.745 206.931 89.7146 207.905 67.983C207.977 66.3804 208.013 65.5791 207.763 64.8564C207.546 64.2283 207.156 63.6393 206.662 63.1941C206.095 62.6818 205.326 62.3956 203.788 61.8233C193.924 58.1518 184.072 54.4763 174.538 49.9833C164.726 45.3593 155.388 39.9913 146.02 34.6063C144.917 33.9718 143.813 33.3371 142.707 32.7034C141.561 32.0461 140.988 31.7175 140.372 31.5873C139.83 31.4728 139.26 31.4728 138.718 31.5873C138.102 31.7175 137.528 32.0461 136.382 32.7034C135.277 33.3371 134.173 33.9718 133.069 34.6062Z"/>
</mask>
<path d="M125.041 20.8894L125.298 21.3182L125.298 21.3182L125.041 20.8894ZM71.9573 46.0989L72.1226 46.5708L72.1226 46.5708L71.9573 46.0989ZM133.437 15.9923L133.672 16.4336L133.672 16.4336L133.437 15.9923ZM136.971 14.4612L137.079 14.9496L137.079 14.9496L136.971 14.4612ZM142.118 14.4612L142.011 14.9496L142.011 14.9496L142.118 14.4612ZM145.653 15.9923L145.418 16.4336L145.418 16.4336L145.653 15.9923ZM154.049 20.8894L154.306 20.4607L154.306 20.4607L154.049 20.8894ZM207.132 46.0989L206.967 46.5708L206.967 46.5708L207.132 46.0989ZM216.492 49.5475L216.688 49.0877L216.688 49.0877L216.492 49.5475ZM220.078 51.5444L220.407 51.1679L220.407 51.1679L220.078 51.5444ZM223.478 56.5275L223.948 56.3585L223.948 56.3585L223.478 56.5275ZM223.943 67.3914L223.444 67.3731L223.444 67.3731L223.943 67.3914ZM207.749 138.421L208.198 138.642L208.198 138.642L207.749 138.421ZM148.723 203.215L149 203.631L149 203.631L148.723 203.215ZM142.332 206.576L142.216 206.09L142.216 206.09L142.332 206.576ZM136.758 206.576L136.874 206.09L136.874 206.09L136.758 206.576ZM130.367 203.215L130.643 202.798L130.367 203.215ZM71.3406 138.421L70.8919 138.642L70.8919 138.642L71.3406 138.421ZM55.1463 67.3914L54.6466 67.4096L55.1463 67.3914ZM55.6119 56.5275L55.1413 56.3585L55.1413 56.3585L55.6119 56.5275ZM59.0119 51.5444L58.683 51.1679L58.683 51.1679L59.0119 51.5444ZM62.598 49.5475L62.4017 49.0877L62.4017 49.0877L62.598 49.5475ZM48.0824 53.8242L47.6118 53.6553L47.6118 53.6553L48.0824 53.8242ZM47.1516 67.6827L46.6519 67.7009L47.1516 67.6827ZM53.7491 45.5192L53.4202 45.1426L53.4202 45.1426L53.7491 45.5192ZM69.3133 38.5485L69.4785 39.0204L69.4785 39.0204L69.3133 38.5485ZM120.925 14.0293L120.668 13.6005L120.668 13.6005L120.925 14.0293ZM135.256 6.64735L135.363 7.13571L135.363 7.13571L135.256 6.64735ZM143.834 6.64735L143.727 7.13571L143.727 7.13571L143.834 6.64735ZM158.164 14.0293L158.422 13.6005L158.422 13.6005L158.164 14.0293ZM209.776 38.5485L209.611 39.0204L209.611 39.0204L209.776 38.5485ZM225.341 45.5192L225.67 45.1426L225.67 45.1426L225.341 45.5192ZM231.007 53.8242L231.478 53.6553L231.478 53.6553L231.007 53.8242ZM231.938 67.6827L231.439 67.6645L231.439 67.6645L231.938 67.6827ZM214.928 141.952L215.377 142.172L214.928 141.952ZM153.148 209.88L152.871 209.463L152.871 209.463L153.148 209.88ZM144.19 214.357L144.307 214.844L144.307 214.844L144.19 214.357ZM134.899 214.357L134.783 214.844L134.783 214.844L134.899 214.357ZM125.942 209.88L126.219 209.463L126.219 209.463L125.942 209.88ZM64.1618 141.952L63.7131 142.172L63.7131 142.172L64.1618 141.952ZM104.552 49.9833L104.765 50.4356L104.765 50.4356L104.552 49.9833ZM133.069 34.6062L133.318 35.0397L133.318 35.0397L133.069 34.6062ZM75.3013 61.8233L75.1269 61.3547L75.1269 61.3547L75.3013 61.8233ZM72.4272 63.194L72.7621 63.5652L72.7621 63.5652L72.4272 63.194ZM71.3265 64.8563L70.854 64.6929L70.854 64.6929L71.3265 64.8563ZM71.1844 67.983L71.6839 67.9606L71.6839 67.9606L71.1844 67.983ZM85.6981 131.36L86.1468 131.139L86.1468 131.139L85.6981 131.36ZM136.033 187.715L136.318 187.305L136.318 187.305L136.033 187.715ZM138.581 189.169L138.701 188.684L138.701 188.684L138.581 189.169ZM140.509 189.169L140.629 189.654L140.629 189.654L140.509 189.169ZM143.057 187.715L142.771 187.305L142.771 187.305L143.057 187.715ZM193.392 131.36L193.84 131.581L193.84 131.581L193.392 131.36ZM207.905 67.983L207.406 67.9606L207.406 67.9606L207.905 67.983ZM207.763 64.8564L208.236 64.693L208.236 64.6929L207.763 64.8564ZM206.662 63.1941L206.328 63.5653L206.328 63.5653L206.662 63.1941ZM203.788 61.8233L203.614 62.2919L203.614 62.2919L203.788 61.8233ZM174.538 49.9833L174.325 50.4356L174.325 50.4356L174.538 49.9833ZM146.02 34.6063L145.771 35.0398L145.771 35.0398L146.02 34.6063ZM142.707 32.7034L142.956 32.2696L142.956 32.2696L142.707 32.7034ZM140.372 31.5873L140.475 31.0981L140.475 31.0981L140.372 31.5873ZM138.718 31.5873L138.614 31.0981L138.614 31.0981L138.718 31.5873ZM136.382 32.7034L136.631 33.1371L136.631 33.1371L136.382 32.7034ZM124.784 20.4607C108.079 30.4819 90.2957 39.1473 71.792 45.627L72.1226 46.5708C90.6992 40.0656 108.544 31.3691 125.298 21.3182L124.784 20.4607ZM133.202 15.551C131.155 16.641 128.563 18.1934 124.784 20.4607L125.298 21.3182C129.087 19.0454 131.653 17.5087 133.672 16.4336L133.202 15.551ZM136.864 13.9728C136.263 14.1049 135.246 14.4621 133.202 15.551L133.672 16.4336C135.69 15.359 136.611 15.0523 137.079 14.9496L136.864 13.9728ZM142.226 13.9728C141.188 13.745 140.372 13.625 139.545 13.625C138.718 13.625 137.902 13.745 136.864 13.9728L137.079 14.9496C138.082 14.7292 138.819 14.625 139.545 14.625C140.27 14.625 141.007 14.7292 142.011 14.9496L142.226 13.9728ZM145.888 15.551C143.843 14.4621 142.827 14.1049 142.226 13.9728L142.011 14.9496C142.479 15.0523 143.4 15.359 145.418 16.4336L145.888 15.551ZM154.306 20.4607C150.527 18.1934 147.935 16.641 145.888 15.551L145.418 16.4336C147.437 17.5087 150.003 19.0454 153.792 21.3182L154.306 20.4607ZM207.298 45.627C188.794 39.1473 171.01 30.4819 154.306 20.4607L153.792 21.3182C170.545 31.3691 188.391 40.0656 206.967 46.5708L207.298 45.627ZM216.688 49.0877C214.499 48.1529 211.611 47.1376 207.298 45.627L206.967 46.5708C211.294 48.086 214.144 49.0888 216.295 50.0074L216.688 49.0877ZM220.407 51.1679C219.792 50.6305 218.812 49.9949 216.688 49.0877L216.295 50.0074C218.374 50.895 219.246 51.4815 219.749 51.921L220.407 51.1679ZM223.948 56.3585C223.262 54.4463 221.937 52.5044 220.407 51.1679L219.749 51.921C221.151 53.1455 222.378 54.9445 223.007 56.6964L223.948 56.3585ZM224.443 67.4096C224.708 60.1561 224.663 58.3501 223.948 56.3585L223.007 56.6964C223.643 58.4664 223.711 60.0499 223.444 67.3731L224.443 67.4096ZM208.198 138.642C220.332 113.968 223.753 86.3336 224.443 67.4096L223.444 67.3731C222.756 86.2333 219.346 113.708 207.301 138.2L208.198 138.642ZM149 203.631C165.196 192.88 192.153 171.266 208.198 138.642L207.301 138.2C191.368 170.598 164.575 192.092 148.447 202.798L149 203.631ZM142.448 207.062C144.462 206.582 145.296 206.09 149 203.631L148.447 202.798C144.734 205.263 144.035 205.655 142.216 206.09L142.448 207.062ZM139.545 207.286C140.992 207.286 142.06 207.155 142.448 207.062L142.216 206.09C141.936 206.157 140.956 206.286 139.545 206.286V207.286ZM136.641 207.062C137.03 207.155 138.097 207.286 139.545 207.286V206.286C138.133 206.286 137.154 206.157 136.874 206.09L136.641 207.062ZM130.09 203.631C133.793 206.09 134.628 206.582 136.641 207.062L136.874 206.09C135.055 205.655 134.356 205.263 130.643 202.798L130.09 203.631ZM70.8919 138.642C86.9363 171.266 113.894 192.88 130.09 203.631L130.643 202.798C114.515 192.092 87.7222 170.598 71.7892 138.2L70.8919 138.642ZM54.6466 67.4096C55.3363 86.3336 58.7574 113.968 70.8919 138.642L71.7892 138.2C59.7436 113.708 56.3333 86.2333 55.6459 67.3731L54.6466 67.4096ZM55.1413 56.3585C54.4263 58.3501 54.3822 60.1561 54.6466 67.4096L55.6459 67.3731C55.379 60.0499 55.447 58.4664 56.0825 56.6964L55.1413 56.3585ZM58.683 51.1679C57.1528 52.5044 55.8278 54.4463 55.1413 56.3585L56.0825 56.6964C56.7114 54.9445 57.9389 53.1455 59.3408 51.921L58.683 51.1679ZM62.4017 49.0877C60.2774 49.9949 59.2982 50.6305 58.683 51.1679L59.3408 51.921C59.844 51.4815 60.7159 50.895 62.7944 50.0074L62.4017 49.0877ZM71.792 45.627C67.4783 47.1376 64.5907 48.1529 62.4017 49.0877L62.7944 50.0074C64.9454 49.0888 67.7957 48.086 72.1226 46.5708L71.792 45.627ZM47.6118 53.6553C46.2689 57.3957 46.4045 60.912 46.6519 67.7009L47.6512 67.6645C47.4017 60.8169 47.2887 57.5149 48.553 53.9932L47.6118 53.6553ZM53.4202 45.1426C50.8639 47.3754 48.7587 50.4608 47.6118 53.6553L48.553 53.9932C49.6423 50.959 51.6501 48.0166 54.0781 45.8958L53.4202 45.1426ZM69.148 38.0766C64.9348 39.552 61.7517 40.6664 59.2598 41.7305C56.7637 42.7964 54.9289 43.8249 53.4202 45.1426L54.0781 45.8958C55.475 44.6756 57.2028 43.6963 59.6526 42.6501C62.1066 41.6022 65.2527 40.5002 69.4785 39.0204L69.148 38.0766ZM120.668 13.6005C104.36 23.384 87.0677 31.8014 69.148 38.0766L69.4785 39.0204C87.4712 32.7196 104.825 24.2712 121.182 14.458L120.668 13.6005ZM135.148 6.15898C133.485 6.52431 131.711 7.28139 129.441 8.48993C127.172 9.69843 124.375 11.3764 120.668 13.6005L121.182 14.458C124.899 12.2285 127.67 10.5662 129.911 9.37257C132.153 8.17894 133.832 7.47187 135.363 7.13571L135.148 6.15898ZM143.941 6.15898C140.699 5.44701 138.391 5.44701 135.148 6.15898L135.363 7.13571C138.464 6.45476 140.626 6.45476 143.727 7.13571L143.941 6.15898ZM158.422 13.6005C154.714 11.3764 151.918 9.69843 149.648 8.48994C147.379 7.28139 145.605 6.52431 143.941 6.15898L143.727 7.13571C145.258 7.47187 146.937 8.17894 149.178 9.37257C151.42 10.5662 154.191 12.2285 157.907 14.458L158.422 13.6005ZM209.942 38.0766C192.022 31.8014 174.73 23.384 158.422 13.6005L157.907 14.458C174.265 24.2712 191.619 32.7196 209.611 39.0204L209.942 38.0766ZM225.67 45.1426C224.161 43.8249 222.326 42.7964 219.83 41.7305C217.338 40.6664 214.155 39.552 209.942 38.0766L209.611 39.0204C213.837 40.5002 216.983 41.6022 219.437 42.6501C221.887 43.6963 223.615 44.6756 225.012 45.8958L225.67 45.1426ZM231.478 53.6553C230.331 50.4608 228.226 47.3754 225.67 45.1426L225.012 45.8958C227.44 48.0166 229.447 50.959 230.537 53.9932L231.478 53.6553ZM232.438 67.7009C232.685 60.912 232.821 57.3957 231.478 53.6553L230.537 53.9932C231.801 57.5149 231.688 60.8168 231.439 67.6645L232.438 67.7009ZM215.377 142.172C228.222 116.054 231.729 87.1366 232.438 67.7009L231.439 67.6645C230.732 87.0362 227.236 115.793 214.479 141.731L215.377 142.172ZM153.424 210.296C170.165 199.183 198.441 176.609 215.377 142.172L214.479 141.731C197.655 175.941 169.544 198.395 152.871 209.463L153.424 210.296ZM144.307 214.844C147.859 213.995 149.759 212.73 153.424 210.296L152.871 209.463C149.201 211.9 147.434 213.069 144.074 213.871L144.307 214.844ZM134.783 214.844C136.035 215.143 137.803 215.286 139.545 215.286C141.287 215.286 143.055 215.143 144.307 214.844L144.074 213.871C142.93 214.144 141.25 214.286 139.545 214.286C137.839 214.286 136.159 214.144 135.015 213.871L134.783 214.844ZM125.665 210.296C129.331 212.73 131.231 213.995 134.783 214.844L135.015 213.871C131.656 213.069 129.889 211.9 126.219 209.463L125.665 210.296ZM63.7131 142.172C80.6492 176.609 108.925 199.183 125.665 210.296L126.219 209.463C109.546 198.395 81.4351 175.941 64.6104 141.731L63.7131 142.172ZM46.6519 67.7009C47.3603 87.1366 50.868 116.054 63.7131 142.172L64.6104 141.731C51.8542 115.793 48.3573 87.0362 47.6512 67.6645L46.6519 67.7009ZM104.765 50.4356C114.599 45.8015 123.954 40.4231 133.318 35.0397L132.82 34.1727C123.45 39.5594 114.129 44.9171 104.339 49.531L104.765 50.4356ZM75.4757 62.2919C85.3413 58.6203 95.184 54.9506 104.765 50.4356L104.339 49.531C94.8019 54.0252 84.9983 57.6809 75.1269 61.3547L75.4757 62.2919ZM72.7621 63.5652C73.2419 63.1323 73.8989 62.8788 75.4757 62.2919L75.1269 61.3547C73.6285 61.9124 72.7479 62.2311 72.0922 62.8228L72.7621 63.5652ZM71.799 65.0198C71.9887 64.4715 72.3314 63.9539 72.7621 63.5652L72.0922 62.8228C71.5361 63.3245 71.0988 63.9851 70.854 64.6929L71.799 65.0198ZM71.6839 67.9606C71.6102 66.3176 71.5877 65.6309 71.799 65.0198L70.854 64.6929C70.5654 65.5273 70.6148 66.4431 70.6849 68.0054L71.6839 67.9606ZM86.1468 131.139C76.5411 111.608 72.6568 89.6521 71.6839 67.9606L70.6849 68.0054C71.6614 89.7772 75.5618 111.883 85.2494 131.581L86.1468 131.139ZM136.318 187.305C115.566 172.849 97.3416 153.902 86.1468 131.139L85.2494 131.581C96.5356 154.529 114.89 173.597 135.747 188.125L136.318 187.305ZM138.701 188.684C138.095 188.533 137.569 188.176 136.318 187.305L135.747 188.125C136.938 188.955 137.634 189.449 138.46 189.654L138.701 188.684ZM140.388 188.684C139.858 188.815 139.232 188.815 138.701 188.684L138.46 189.654C139.149 189.825 139.941 189.825 140.629 189.654L140.388 188.684ZM142.771 187.305C141.52 188.176 140.995 188.533 140.388 188.684L140.629 189.654C141.456 189.449 142.152 188.955 143.343 188.125L142.771 187.305ZM192.943 131.139C181.748 153.903 163.523 172.849 142.771 187.305L143.343 188.125C164.199 173.597 182.554 154.53 193.84 131.581L192.943 131.139ZM207.406 67.9606C206.433 89.6521 202.548 111.608 192.943 131.139L193.84 131.581C203.528 111.883 207.428 89.7772 208.405 68.0054L207.406 67.9606ZM207.291 65.0198C207.502 65.6308 207.479 66.3176 207.406 67.9606L208.405 68.0054C208.475 66.4431 208.524 65.5273 208.236 64.693L207.291 65.0198ZM206.328 63.5653C206.758 63.954 207.101 64.4715 207.291 65.0198L208.236 64.6929C207.991 63.9851 207.554 63.3246 206.997 62.8228L206.328 63.5653ZM203.614 62.2919C205.191 62.8788 205.848 63.1323 206.328 63.5653L206.997 62.8229C206.342 62.2312 205.461 61.9124 203.963 61.3547L203.614 62.2919ZM174.325 50.4356C183.881 54.9389 193.753 58.6215 203.614 62.2919L203.963 61.3547C194.096 57.6821 184.263 54.0136 174.751 49.531L174.325 50.4356ZM145.771 35.0398C155.136 40.4232 164.491 45.8015 174.325 50.4356L174.751 49.531C164.96 44.9171 155.64 39.5595 146.27 34.1728L145.771 35.0398ZM142.459 33.1371C143.564 33.7707 144.668 34.4053 145.771 35.0398L146.27 34.1728C145.166 33.5384 144.062 32.9035 142.956 32.2696L142.459 33.1371ZM140.268 32.0765C140.789 32.1866 141.284 32.4636 142.459 33.1371L142.956 32.2696C141.838 31.6287 141.187 31.2484 140.475 31.0981L140.268 32.0765ZM138.821 32.0765C139.295 31.9764 139.795 31.9764 140.268 32.0765L140.475 31.0981C139.865 30.9692 139.225 30.9692 138.614 31.0981L138.821 32.0765ZM136.631 33.1371C137.806 32.4636 138.3 32.1866 138.821 32.0765L138.614 31.0981C137.903 31.2484 137.251 31.6287 136.134 32.2696L136.631 33.1371ZM133.318 35.0397C134.422 34.4052 135.526 33.7707 136.631 33.1371L136.134 32.2696C135.028 32.9035 133.924 33.5383 132.82 34.1727L133.318 35.0397Z" fill="url(#paint6_linear_142_780)" mask="url(#path-12-inside-1_142_780)"/>
</g>
</g>
</g>
</g>
<g filter="url(#filter2_dd_142_780)">
<mask id="path-14-inside-2_142_780" fill="white">
<path fill-rule="evenodd" clip-rule="evenodd" d="M36.0426 164.276C35.8205 165.482 36.476 166.978 37.7871 169.969L43.9369 184L37.7871 198.031C36.476 201.022 35.8205 202.518 36.0426 203.724C36.2368 204.779 36.8461 205.711 37.7339 206.312C38.7497 207 40.3828 207 43.6488 207H60.3715C64.8519 207 67.0921 207 68.8034 206.128C70.3087 205.361 71.5325 204.137 72.2995 202.632C73.1715 200.921 73.1715 198.68 73.1715 194.2V173.8C73.1715 169.32 73.1715 167.079 72.2995 165.368C71.5325 163.863 70.3087 162.639 68.8034 161.872C67.0921 161 64.8519 161 60.3715 161H43.6488C40.3828 161 38.7497 161 37.7339 161.688C36.8461 162.289 36.2368 163.221 36.0426 164.276ZM243.669 164.276C243.891 165.482 243.236 166.978 241.925 169.969L235.775 184L241.925 198.031C243.236 201.022 243.891 202.518 243.669 203.724C243.475 204.779 242.866 205.711 241.978 206.312C240.962 207 239.329 207 236.063 207H219.34C214.86 207 212.62 207 210.909 206.128C209.403 205.361 208.179 204.137 207.412 202.632C206.54 200.921 206.54 198.68 206.54 194.2V173.8C206.54 169.32 206.54 167.079 207.412 165.368C208.179 163.863 209.403 162.639 210.909 161.872C212.62 161 214.86 161 219.34 161H236.063C239.329 161 240.962 161 241.978 161.688C242.866 162.289 243.475 163.221 243.669 164.276Z"/>
</mask>
<path fill-rule="evenodd" clip-rule="evenodd" d="M36.0426 164.276C35.8205 165.482 36.476 166.978 37.7871 169.969L43.9369 184L37.7871 198.031C36.476 201.022 35.8205 202.518 36.0426 203.724C36.2368 204.779 36.8461 205.711 37.7339 206.312C38.7497 207 40.3828 207 43.6488 207H60.3715C64.8519 207 67.0921 207 68.8034 206.128C70.3087 205.361 71.5325 204.137 72.2995 202.632C73.1715 200.921 73.1715 198.68 73.1715 194.2V173.8C73.1715 169.32 73.1715 167.079 72.2995 165.368C71.5325 163.863 70.3087 162.639 68.8034 161.872C67.0921 161 64.8519 161 60.3715 161H43.6488C40.3828 161 38.7497 161 37.7339 161.688C36.8461 162.289 36.2368 163.221 36.0426 164.276ZM243.669 164.276C243.891 165.482 243.236 166.978 241.925 169.969L235.775 184L241.925 198.031C243.236 201.022 243.891 202.518 243.669 203.724C243.475 204.779 242.866 205.711 241.978 206.312C240.962 207 239.329 207 236.063 207H219.34C214.86 207 212.62 207 210.909 206.128C209.403 205.361 208.179 204.137 207.412 202.632C206.54 200.921 206.54 198.68 206.54 194.2V173.8C206.54 169.32 206.54 167.079 207.412 165.368C208.179 163.863 209.403 162.639 210.909 161.872C212.62 161 214.86 161 219.34 161H236.063C239.329 161 240.962 161 241.978 161.688C242.866 162.289 243.475 163.221 243.669 164.276Z" fill="#646464"/>
<path d="M37.7871 169.969L37.3292 170.17L37.3292 170.17L37.7871 169.969ZM36.0426 164.276L35.5509 164.185L36.0426 164.276ZM43.9369 184L44.3948 184.201L44.4828 184L44.3948 183.799L43.9369 184ZM37.7871 198.031L38.2451 198.232L38.2451 198.232L37.7871 198.031ZM36.0426 203.724L36.5344 203.634L36.5344 203.634L36.0426 203.724ZM37.7339 206.312L37.4536 206.726L37.4536 206.726L37.7339 206.312ZM68.8034 206.128L69.0304 206.574L69.0304 206.574L68.8034 206.128ZM72.2995 202.632L71.854 202.405L71.854 202.405L72.2995 202.632ZM72.2995 165.368L71.854 165.595L71.854 165.595L72.2995 165.368ZM68.8034 161.872L69.0304 161.426L69.0304 161.426L68.8034 161.872ZM37.7339 161.688L38.0142 162.102L37.7339 161.688ZM241.925 169.969L241.467 169.768L241.467 169.768L241.925 169.969ZM243.669 164.276L243.178 164.366L243.178 164.366L243.669 164.276ZM235.775 184L235.317 183.799L235.229 184L235.317 184.201L235.775 184ZM241.925 198.031L241.467 198.232L241.467 198.232L241.925 198.031ZM243.669 203.724L243.178 203.634L243.178 203.634L243.669 203.724ZM241.978 206.312L242.258 206.726L242.258 206.726L241.978 206.312ZM210.909 206.128L211.136 205.683L211.136 205.683L210.909 206.128ZM207.412 202.632L207.858 202.405L207.858 202.405L207.412 202.632ZM207.412 165.368L207.858 165.595L207.858 165.595L207.412 165.368ZM210.909 161.872L211.136 162.317L211.136 162.317L210.909 161.872ZM241.978 161.688L242.258 161.274L242.258 161.274L241.978 161.688ZM38.2451 169.768C37.5857 168.264 37.1053 167.167 36.8142 166.295C36.5233 165.423 36.4462 164.845 36.5344 164.366L35.5509 164.185C35.4169 164.913 35.5565 165.686 35.8657 166.611C36.1746 167.537 36.6775 168.683 37.3292 170.17L38.2451 169.768ZM44.3948 183.799L38.2451 169.768L37.3292 170.17L43.4789 184.201L44.3948 183.799ZM38.2451 198.232L44.3948 184.201L43.4789 183.799L37.3292 197.83L38.2451 198.232ZM36.5344 203.634C36.4462 203.155 36.5233 202.577 36.8142 201.705C37.1053 200.833 37.5857 199.736 38.2451 198.232L37.3292 197.83C36.6775 199.317 36.1746 200.463 35.8657 201.389C35.5565 202.314 35.4169 203.087 35.5509 203.815L36.5344 203.634ZM38.0142 205.898C37.2374 205.372 36.7042 204.556 36.5344 203.634L35.5509 203.815C35.7693 205.001 36.4548 206.05 37.4536 206.726L38.0142 205.898ZM43.6488 206.5C42.0062 206.5 40.8084 206.5 39.8929 206.416C38.9781 206.333 38.4173 206.171 38.0142 205.898L37.4536 206.726C38.0664 207.141 38.83 207.323 39.8022 207.412C40.7737 207.5 42.0254 207.5 43.6488 207.5V206.5ZM60.3715 206.5H43.6488V207.5H60.3715V206.5ZM68.5764 205.683C67.803 206.077 66.8882 206.286 65.5851 206.393C64.2762 206.5 62.6199 206.5 60.3715 206.5V207.5C62.6034 207.5 64.3075 207.5 65.6666 207.389C67.0315 207.278 68.0925 207.051 69.0304 206.574L68.5764 205.683ZM71.854 202.405C71.135 203.816 69.9876 204.963 68.5764 205.683L69.0304 206.574C70.6298 205.759 71.9301 204.458 72.745 202.859L71.854 202.405ZM72.6715 194.2C72.6715 196.448 72.6711 198.105 72.5641 199.414C72.4577 200.717 72.2481 201.632 71.854 202.405L72.745 202.859C73.2229 201.921 73.4493 200.86 73.5608 199.495C73.6719 198.136 73.6715 196.432 73.6715 194.2H72.6715ZM72.6715 173.8V194.2H73.6715V173.8H72.6715ZM71.854 165.595C72.2481 166.368 72.4577 167.283 72.5641 168.586C72.6711 169.895 72.6715 171.552 72.6715 173.8H73.6715C73.6715 171.568 73.6719 169.864 73.5608 168.505C73.4493 167.14 73.2229 166.079 72.745 165.141L71.854 165.595ZM68.5764 162.317C69.9876 163.037 71.135 164.184 71.854 165.595L72.745 165.141C71.9301 163.542 70.6298 162.241 69.0304 161.426L68.5764 162.317ZM60.3715 161.5C62.6199 161.5 64.2762 161.5 65.5852 161.607C66.8882 161.714 67.803 161.923 68.5764 162.317L69.0304 161.426C68.0925 160.949 67.0315 160.722 65.6666 160.611C64.3075 160.5 62.6034 160.5 60.3715 160.5V161.5ZM43.6488 161.5H60.3715V160.5H43.6488V161.5ZM38.0142 162.102C38.4173 161.829 38.9781 161.667 39.8929 161.584C40.8084 161.5 42.0062 161.5 43.6488 161.5V160.5C42.0255 160.5 40.7737 160.5 39.8022 160.588C38.83 160.677 38.0664 160.859 37.4536 161.274L38.0142 162.102ZM36.5344 164.366C36.7042 163.444 37.2374 162.628 38.0142 162.102L37.4536 161.274C36.4548 161.95 35.7693 162.999 35.5509 164.185L36.5344 164.366ZM242.383 170.17C243.034 168.683 243.537 167.537 243.846 166.611C244.155 165.686 244.295 164.913 244.161 164.185L243.178 164.366C243.266 164.845 243.189 165.423 242.898 166.295C242.607 167.167 242.126 168.264 241.467 169.768L242.383 170.17ZM236.233 184.201L242.383 170.17L241.467 169.768L235.317 183.799L236.233 184.201ZM242.383 197.83L236.233 183.799L235.317 184.201L241.467 198.232L242.383 197.83ZM244.161 203.815C244.295 203.087 244.155 202.314 243.846 201.389C243.537 200.463 243.034 199.317 242.383 197.83L241.467 198.232C242.126 199.736 242.607 200.833 242.898 201.705C243.189 202.577 243.266 203.155 243.178 203.634L244.161 203.815ZM242.258 206.726C243.257 206.05 243.943 205.001 244.161 203.815L243.178 203.634C243.008 204.556 242.475 205.372 241.698 205.898L242.258 206.726ZM236.063 207.5C237.686 207.5 238.938 207.5 239.91 207.412C240.882 207.323 241.645 207.141 242.258 206.726L241.698 205.898C241.295 206.171 240.734 206.333 239.819 206.416C238.904 206.5 237.706 206.5 236.063 206.5V207.5ZM219.34 207.5H236.063V206.5H219.34V207.5ZM210.682 206.574C211.619 207.051 212.68 207.278 214.045 207.389C215.404 207.5 217.108 207.5 219.34 207.5V206.5C217.092 206.5 215.436 206.5 214.127 206.393C212.824 206.286 211.909 206.077 211.136 205.683L210.682 206.574ZM206.967 202.859C207.782 204.458 209.082 205.759 210.682 206.574L211.136 205.683C209.724 204.963 208.577 203.816 207.858 202.405L206.967 202.859ZM206.04 194.2C206.04 196.432 206.04 198.136 206.151 199.495C206.263 200.86 206.489 201.921 206.967 202.859L207.858 202.405C207.464 201.632 207.254 200.717 207.148 199.414C207.041 198.105 207.04 196.448 207.04 194.2H206.04ZM206.04 173.8V194.2H207.04V173.8H206.04ZM206.967 165.141C206.489 166.079 206.263 167.14 206.151 168.505C206.04 169.864 206.04 171.568 206.04 173.8H207.04C207.04 171.552 207.041 169.895 207.148 168.586C207.254 167.283 207.464 166.368 207.858 165.595L206.967 165.141ZM210.682 161.426C209.082 162.241 207.782 163.542 206.967 165.141L207.858 165.595C208.577 164.184 209.724 163.037 211.136 162.317L210.682 161.426ZM219.34 160.5C217.108 160.5 215.404 160.5 214.045 160.611C212.68 160.722 211.619 160.949 210.682 161.426L211.136 162.317C211.909 161.923 212.824 161.714 214.127 161.607C215.436 161.5 217.092 161.5 219.34 161.5V160.5ZM236.063 160.5H219.34V161.5H236.063V160.5ZM242.258 161.274C241.645 160.859 240.882 160.677 239.91 160.588C238.938 160.5 237.686 160.5 236.063 160.5V161.5C237.706 161.5 238.904 161.5 239.819 161.584C240.734 161.667 241.295 161.829 241.698 162.102L242.258 161.274ZM244.161 164.185C243.943 162.999 243.257 161.95 242.258 161.274L241.698 162.102C242.475 162.628 243.008 163.444 243.178 164.366L244.161 164.185Z" fill="url(#paint7_linear_142_780)" style="mix-blend-mode:darken" mask="url(#path-14-inside-2_142_780)"/>
</g>
<path fill-rule="evenodd" clip-rule="evenodd" d="M36.0426 164.276C35.8205 165.482 36.476 166.978 37.7871 169.969L43.9369 184L37.7871 198.031C36.476 201.022 35.8205 202.518 36.0426 203.724C36.2368 204.779 36.8461 205.711 37.7339 206.312C38.7497 207 40.3828 207 43.6488 207H60.3715C64.8519 207 67.0921 207 68.8034 206.128C70.3087 205.361 71.5325 204.137 72.2995 202.632C73.1715 200.921 73.1715 198.68 73.1715 194.2V173.8C73.1715 169.32 73.1715 167.079 72.2995 165.368C71.5325 163.863 70.3087 162.639 68.8034 161.872C67.0921 161 64.8519 161 60.3715 161H43.6488C40.3828 161 38.7497 161 37.7339 161.688C36.8461 162.289 36.2368 163.221 36.0426 164.276ZM243.669 164.276C243.891 165.482 243.236 166.978 241.925 169.969L235.775 184L241.925 198.031C243.236 201.022 243.891 202.518 243.669 203.724C243.475 204.779 242.866 205.711 241.978 206.312C240.962 207 239.329 207 236.063 207H219.34C214.86 207 212.62 207 210.909 206.128C209.403 205.361 208.179 204.137 207.412 202.632C206.54 200.921 206.54 198.68 206.54 194.2V173.8C206.54 169.32 206.54 167.079 207.412 165.368C208.179 163.863 209.403 162.639 210.909 161.872C212.62 161 214.86 161 219.34 161H236.063C239.329 161 240.962 161 241.978 161.688C242.866 162.289 243.475 163.221 243.669 164.276Z" fill="url(#paint8_linear_142_780)" fill-opacity="0.3" style="mix-blend-mode:overlay"/>
<path fill-rule="evenodd" clip-rule="evenodd" d="M36.0426 164.276C35.8205 165.482 36.476 166.978 37.7871 169.969L43.9369 184L37.7871 198.031C36.476 201.022 35.8205 202.518 36.0426 203.724C36.2368 204.779 36.8461 205.711 37.7339 206.312C38.7497 207 40.3828 207 43.6488 207H60.3715C64.8519 207 67.0921 207 68.8034 206.128C70.3087 205.361 71.5325 204.137 72.2995 202.632C73.1715 200.921 73.1715 198.68 73.1715 194.2V173.8C73.1715 169.32 73.1715 167.079 72.2995 165.368C71.5325 163.863 70.3087 162.639 68.8034 161.872C67.0921 161 64.8519 161 60.3715 161H43.6488C40.3828 161 38.7497 161 37.7339 161.688C36.8461 162.289 36.2368 163.221 36.0426 164.276ZM243.669 164.276C243.891 165.482 243.236 166.978 241.925 169.969L235.775 184L241.925 198.031C243.236 201.022 243.891 202.518 243.669 203.724C243.475 204.779 242.866 205.711 241.978 206.312C240.962 207 239.329 207 236.063 207H219.34C214.86 207 212.62 207 210.909 206.128C209.403 205.361 208.179 204.137 207.412 202.632C206.54 200.921 206.54 198.68 206.54 194.2V173.8C206.54 169.32 206.54 167.079 207.412 165.368C208.179 163.863 209.403 162.639 210.909 161.872C212.62 161 214.86 161 219.34 161H236.063C239.329 161 240.962 161 241.978 161.688C242.866 162.289 243.475 163.221 243.669 164.276Z" fill="url(#paint9_radial_142_780)" fill-opacity="0.6" style="mix-blend-mode:overlay"/>
<path fill-rule="evenodd" clip-rule="evenodd" d="M36.0426 164.276C35.8205 165.482 36.476 166.978 37.7871 169.969L43.9369 184L37.7871 198.031C36.476 201.022 35.8205 202.518 36.0426 203.724C36.2368 204.779 36.8461 205.711 37.7339 206.312C38.7497 207 40.3828 207 43.6488 207H60.3715C64.8519 207 67.0921 207 68.8034 206.128C70.3087 205.361 71.5325 204.137 72.2995 202.632C73.1715 200.921 73.1715 198.68 73.1715 194.2V173.8C73.1715 169.32 73.1715 167.079 72.2995 165.368C71.5325 163.863 70.3087 162.639 68.8034 161.872C67.0921 161 64.8519 161 60.3715 161H43.6488C40.3828 161 38.7497 161 37.7339 161.688C36.8461 162.289 36.2368 163.221 36.0426 164.276ZM243.669 164.276C243.891 165.482 243.236 166.978 241.925 169.969L235.775 184L241.925 198.031C243.236 201.022 243.891 202.518 243.669 203.724C243.475 204.779 242.866 205.711 241.978 206.312C240.962 207 239.329 207 236.063 207H219.34C214.86 207 212.62 207 210.909 206.128C209.403 205.361 208.179 204.137 207.412 202.632C206.54 200.921 206.54 198.68 206.54 194.2V173.8C206.54 169.32 206.54 167.079 207.412 165.368C208.179 163.863 209.403 162.639 210.909 161.872C212.62 161 214.86 161 219.34 161H236.063C239.329 161 240.962 161 241.978 161.688C242.866 162.289 243.475 163.221 243.669 164.276Z" fill="black" fill-opacity="0.24" style="mix-blend-mode:overlay"/>
<path fill-rule="evenodd" clip-rule="evenodd" d="M36.0426 164.276C35.8205 165.482 36.476 166.978 37.7871 169.969L43.9369 184L37.7871 198.031C36.476 201.022 35.8205 202.518 36.0426 203.724C36.2368 204.779 36.8461 205.711 37.7339 206.312C38.7497 207 40.3828 207 43.6488 207H60.3715C64.8519 207 67.0921 207 68.8034 206.128C70.3087 205.361 71.5325 204.137 72.2995 202.632C73.1715 200.921 73.1715 198.68 73.1715 194.2V173.8C73.1715 169.32 73.1715 167.079 72.2995 165.368C71.5325 163.863 70.3087 162.639 68.8034 161.872C67.0921 161 64.8519 161 60.3715 161H43.6488C40.3828 161 38.7497 161 37.7339 161.688C36.8461 162.289 36.2368 163.221 36.0426 164.276ZM243.669 164.276C243.891 165.482 243.236 166.978 241.925 169.969L235.775 184L241.925 198.031C243.236 201.022 243.891 202.518 243.669 203.724C243.475 204.779 242.866 205.711 241.978 206.312C240.962 207 239.329 207 236.063 207H219.34C214.86 207 212.62 207 210.909 206.128C209.403 205.361 208.179 204.137 207.412 202.632C206.54 200.921 206.54 198.68 206.54 194.2V173.8C206.54 169.32 206.54 167.079 207.412 165.368C208.179 163.863 209.403 162.639 210.909 161.872C212.62 161 214.86 161 219.34 161H236.063C239.329 161 240.962 161 241.978 161.688C242.866 162.289 243.475 163.221 243.669 164.276Z" fill="black" fill-opacity="0.12" style="mix-blend-mode:darken"/>
<g filter="url(#filter3_dd_142_780)">
<rect x="51.8555" y="149" width="176" height="46" rx="8" fill="#646464"/>
<rect x="52.1055" y="149.25" width="175.5" height="45.5" rx="7.75" stroke="url(#paint10_linear_142_780)" stroke-width="0.5" stroke-linecap="round" style="mix-blend-mode:darken"/>
</g>
<rect x="51.8555" y="149" width="176" height="46" rx="8" fill="url(#paint11_linear_142_780)" fill-opacity="0.3" style="mix-blend-mode:overlay"/>
<rect x="51.8555" y="149" width="176" height="46" rx="8" fill="url(#paint12_radial_142_780)" fill-opacity="0.6" style="mix-blend-mode:overlay"/>
<g filter="url(#filter4_i_142_780)">
<circle cx="62.8555" cy="172" r="3" fill="black" fill-opacity="0.24" style="mix-blend-mode:color-burn"/>
<circle cx="62.8555" cy="172" r="3" fill="black" fill-opacity="0.32" style="mix-blend-mode:darken"/>
</g>
<g filter="url(#filter5_i_142_780)">
<circle cx="216.855" cy="172" r="3" fill="black" fill-opacity="0.24" style="mix-blend-mode:color-burn"/>
<circle cx="216.855" cy="172" r="3" fill="black" fill-opacity="0.32" style="mix-blend-mode:darken"/>
</g>
<g filter="url(#filter6_i_142_780)">
<path d="M87.3368 168.848H90.9848V178.976C90.8408 179.024 90.6088 179.064 90.2888 179.096C89.9688 179.144 89.6408 179.168 89.3048 179.168C88.5848 179.168 88.0728 179.04 87.7688 178.784C87.4808 178.528 87.3368 178.08 87.3368 177.44V168.848ZM90.9848 173.456H87.3368V164.408C87.4968 164.376 87.7368 164.336 88.0568 164.288C88.3928 164.24 88.7208 164.216 89.0408 164.216C89.7288 164.216 90.2248 164.336 90.5288 164.576C90.8328 164.816 90.9848 165.272 90.9848 165.944V173.456ZM94.4149 168.608L97.7269 168.56C97.7909 169.248 97.8389 169.928 97.8709 170.6C97.9029 171.272 97.9189 171.92 97.9189 172.544C97.9349 173.168 97.9429 173.776 97.9429 174.368V179C97.7989 179.032 97.5669 179.064 97.2469 179.096C96.9429 179.144 96.6309 179.168 96.3109 179.168C95.6069 179.168 95.1109 179.048 94.8229 178.808C94.5509 178.568 94.4149 178.136 94.4149 177.512V168.608ZM107.207 174.776L103.871 174.8C103.759 173.632 103.695 172.52 103.679 171.464C103.663 170.408 103.655 169.4 103.655 168.44V164.408C103.815 164.376 104.047 164.336 104.351 164.288C104.655 164.24 104.975 164.216 105.311 164.216C105.999 164.216 106.487 164.344 106.775 164.6C107.063 164.84 107.207 165.264 107.207 165.872V174.776ZM107.207 173.624V178.544C106.999 178.736 106.703 178.888 106.319 179C105.951 179.128 105.511 179.192 104.999 179.192C104.455 179.192 103.943 179.104 103.463 178.928C102.999 178.752 102.615 178.36 102.311 177.752L99.4069 172.232C99.2309 171.88 99.0549 171.528 98.8789 171.176C98.7189 170.824 98.5589 170.472 98.3989 170.12C98.2389 169.752 98.0789 169.384 97.9189 169.016L94.4149 169.808V165.08C94.6069 164.808 94.9029 164.6 95.3029 164.456C95.7189 164.312 96.1669 164.24 96.6469 164.24C97.1749 164.24 97.6709 164.328 98.1349 164.504C98.6149 164.68 99.0069 165.064 99.3109 165.656L102.239 171.2C102.415 171.536 102.591 171.888 102.767 172.256C102.943 172.608 103.111 172.96 103.271 173.312C103.431 173.664 103.583 174.024 103.727 174.392L107.207 173.624ZM110.587 168.848H114.235V178.976C114.091 179.024 113.859 179.064 113.539 179.096C113.219 179.144 112.891 179.168 112.555 179.168C111.835 179.168 111.323 179.04 111.019 178.784C110.731 178.528 110.587 178.08 110.587 177.44V168.848ZM114.235 173.456H110.587V164.408C110.747 164.376 110.987 164.336 111.307 164.288C111.643 164.24 111.971 164.216 112.291 164.216C112.979 164.216 113.475 164.336 113.779 164.576C114.083 164.816 114.235 165.272 114.235 165.944V173.456ZM128.897 166.424C128.897 166.792 128.801 167.112 128.609 167.384C128.417 167.656 128.201 167.872 127.961 168.032C127.561 167.76 127.105 167.52 126.593 167.312C126.097 167.104 125.505 167 124.817 167C123.969 167 123.233 167.184 122.609 167.552C121.985 167.92 121.505 168.456 121.169 169.16C120.849 169.864 120.689 170.72 120.689 171.728C120.689 173.264 121.073 174.432 121.841 175.232C122.609 176.032 123.665 176.432 125.009 176.432C125.697 176.432 126.289 176.336 126.785 176.144C127.281 175.952 127.737 175.736 128.153 175.496C128.393 175.672 128.585 175.904 128.729 176.192C128.889 176.464 128.969 176.784 128.969 177.152C128.969 177.472 128.881 177.768 128.705 178.04C128.545 178.312 128.265 178.544 127.865 178.736C127.561 178.896 127.129 179.048 126.569 179.192C126.009 179.336 125.329 179.408 124.529 179.408C123.121 179.408 121.833 179.136 120.665 178.592C119.513 178.032 118.601 177.192 117.929 176.072C117.257 174.936 116.921 173.488 116.921 171.728C116.921 170.064 117.249 168.664 117.905 167.528C118.577 166.376 119.473 165.504 120.593 164.912C121.713 164.32 122.953 164.024 124.313 164.024C125.257 164.024 126.073 164.136 126.761 164.36C127.449 164.568 127.977 164.856 128.345 165.224C128.713 165.576 128.897 165.976 128.897 166.424ZM131.47 168.848H135.118V178.976C134.974 179.024 134.742 179.064 134.422 179.096C134.102 179.144 133.774 179.168 133.438 179.168C132.718 179.168 132.206 179.04 131.902 178.784C131.614 178.528 131.47 178.08 131.47 177.44V168.848ZM135.118 173.456H131.47V164.408C131.63 164.376 131.87 164.336 132.19 164.288C132.526 164.24 132.854 164.216 133.174 164.216C133.862 164.216 134.358 164.336 134.662 164.576C134.966 164.816 135.118 165.272 135.118 165.944V173.456ZM144.404 167.48H144.26C144.1 167.992 143.908 168.56 143.684 169.184C143.476 169.808 143.26 170.464 143.036 171.152C142.812 171.824 142.596 172.496 142.388 173.168L141.956 175.328C141.86 175.632 141.764 175.952 141.668 176.288C141.588 176.624 141.5 176.952 141.404 177.272C141.308 177.592 141.22 177.896 141.14 178.184C141.06 178.472 140.98 178.744 140.9 179C140.724 179.048 140.524 179.096 140.3 179.144C140.076 179.208 139.812 179.24 139.508 179.24C138.836 179.24 138.324 179.12 137.972 178.88C137.62 178.64 137.444 178.288 137.444 177.824C137.444 177.632 137.468 177.432 137.516 177.224C137.58 177.016 137.652 176.776 137.732 176.504C137.876 175.976 138.076 175.312 138.332 174.512C138.604 173.712 138.892 172.848 139.196 171.92C139.516 170.976 139.836 170.048 140.156 169.136C140.492 168.224 140.796 167.384 141.068 166.616C141.356 165.848 141.588 165.248 141.764 164.816C141.988 164.672 142.34 164.544 142.82 164.432C143.316 164.304 143.804 164.24 144.284 164.24C144.972 164.24 145.588 164.344 146.132 164.552C146.676 164.744 147.02 165.056 147.164 165.488C147.468 166.336 147.796 167.32 148.148 168.44C148.516 169.544 148.884 170.704 149.252 171.92C149.62 173.136 149.972 174.32 150.308 175.472C150.66 176.608 150.964 177.632 151.22 178.544C151.044 178.736 150.788 178.896 150.452 179.024C150.116 179.168 149.716 179.24 149.252 179.24C148.596 179.24 148.132 179.12 147.86 178.88C147.588 178.64 147.38 178.28 147.236 177.8L146.468 175.112L146.06 173.072C145.868 172.352 145.668 171.656 145.46 170.984C145.252 170.312 145.06 169.68 144.884 169.088C144.708 168.48 144.548 167.944 144.404 167.48ZM140.348 175.76L141.764 172.928H147.38L147.86 175.76H140.348ZM153.407 168.608L156.719 168.56C156.783 169.248 156.831 169.928 156.863 170.6C156.895 171.272 156.911 171.92 156.911 172.544C156.927 173.168 156.935 173.776 156.935 174.368V179C156.791 179.032 156.559 179.064 156.239 179.096C155.935 179.144 155.623 179.168 155.303 179.168C154.599 179.168 154.103 179.048 153.815 178.808C153.543 178.568 153.407 178.136 153.407 177.512V168.608ZM166.199 174.776L162.863 174.8C162.751 173.632 162.687 172.52 162.671 171.464C162.655 170.408 162.647 169.4 162.647 168.44V164.408C162.807 164.376 163.039 164.336 163.343 164.288C163.647 164.24 163.967 164.216 164.303 164.216C164.991 164.216 165.479 164.344 165.767 164.6C166.055 164.84 166.199 165.264 166.199 165.872V174.776ZM166.199 173.624V178.544C165.991 178.736 165.695 178.888 165.311 179C164.943 179.128 164.503 179.192 163.991 179.192C163.447 179.192 162.935 179.104 162.455 178.928C161.991 178.752 161.607 178.36 161.303 177.752L158.399 172.232C158.223 171.88 158.047 171.528 157.871 171.176C157.711 170.824 157.551 170.472 157.391 170.12C157.231 169.752 157.071 169.384 156.911 169.016L153.407 169.808V165.08C153.599 164.808 153.895 164.6 154.295 164.456C154.711 164.312 155.159 164.24 155.639 164.24C156.167 164.24 156.663 164.328 157.127 164.504C157.607 164.68 157.999 165.064 158.303 165.656L161.231 171.2C161.407 171.536 161.583 171.888 161.759 172.256C161.935 172.608 162.103 172.96 162.263 173.312C162.423 173.664 162.575 174.024 162.719 174.392L166.199 173.624ZM172.747 167.384L172.723 164.456H180.139C180.235 164.6 180.323 164.8 180.403 165.056C180.483 165.312 180.523 165.584 180.523 165.872C180.523 166.384 180.403 166.768 180.163 167.024C179.939 167.264 179.627 167.384 179.227 167.384H172.747ZM176.131 164.456L176.155 167.384H168.739C168.627 167.24 168.531 167.04 168.451 166.784C168.387 166.528 168.355 166.256 168.355 165.968C168.355 165.44 168.467 165.056 168.691 164.816C168.931 164.576 169.243 164.456 169.627 164.456H176.131ZM172.555 166.736H176.227V178.976C176.067 179.024 175.827 179.064 175.507 179.096C175.187 179.144 174.859 179.168 174.523 179.168C173.803 179.168 173.291 179.04 172.987 178.784C172.699 178.528 172.555 178.08 172.555 177.44V166.736ZM182.727 168.824H186.279V178.856C186.135 178.888 185.911 178.928 185.607 178.976C185.319 179.024 185.007 179.048 184.671 179.048C184.079 179.048 183.607 178.872 183.255 178.52C182.903 178.168 182.727 177.696 182.727 177.104V168.824ZM186.279 174.632H182.727V166.4C182.727 165.792 182.903 165.32 183.255 164.984C183.607 164.632 184.079 164.456 184.671 164.456C185.007 164.456 185.319 164.48 185.607 164.528C185.911 164.576 186.135 164.616 186.279 164.648V174.632ZM184.671 173.024V170.144H191.919C192.015 170.304 192.103 170.504 192.183 170.744C192.263 170.984 192.303 171.248 192.303 171.536C192.303 172.048 192.183 172.424 191.943 172.664C191.719 172.904 191.415 173.024 191.031 173.024H184.671ZM184.671 179.048V176.144H192.711C192.807 176.288 192.895 176.488 192.975 176.744C193.055 177 193.095 177.272 193.095 177.56C193.095 178.072 192.975 178.448 192.735 178.688C192.511 178.928 192.207 179.048 191.823 179.048H184.671ZM184.671 167.336V164.456H192.591C192.703 164.6 192.791 164.792 192.855 165.032C192.935 165.272 192.975 165.536 192.975 165.824C192.975 166.336 192.863 166.72 192.639 166.976C192.415 167.216 192.103 167.336 191.703 167.336H184.671Z" fill="black" fill-opacity="0.24" style="mix-blend-mode:color-burn"/>
<path d="M87.3368 168.848H90.9848V178.976C90.8408 179.024 90.6088 179.064 90.2888 179.096C89.9688 179.144 89.6408 179.168 89.3048 179.168C88.5848 179.168 88.0728 179.04 87.7688 178.784C87.4808 178.528 87.3368 178.08 87.3368 177.44V168.848ZM90.9848 173.456H87.3368V164.408C87.4968 164.376 87.7368 164.336 88.0568 164.288C88.3928 164.24 88.7208 164.216 89.0408 164.216C89.7288 164.216 90.2248 164.336 90.5288 164.576C90.8328 164.816 90.9848 165.272 90.9848 165.944V173.456ZM94.4149 168.608L97.7269 168.56C97.7909 169.248 97.8389 169.928 97.8709 170.6C97.9029 171.272 97.9189 171.92 97.9189 172.544C97.9349 173.168 97.9429 173.776 97.9429 174.368V179C97.7989 179.032 97.5669 179.064 97.2469 179.096C96.9429 179.144 96.6309 179.168 96.3109 179.168C95.6069 179.168 95.1109 179.048 94.8229 178.808C94.5509 178.568 94.4149 178.136 94.4149 177.512V168.608ZM107.207 174.776L103.871 174.8C103.759 173.632 103.695 172.52 103.679 171.464C103.663 170.408 103.655 169.4 103.655 168.44V164.408C103.815 164.376 104.047 164.336 104.351 164.288C104.655 164.24 104.975 164.216 105.311 164.216C105.999 164.216 106.487 164.344 106.775 164.6C107.063 164.84 107.207 165.264 107.207 165.872V174.776ZM107.207 173.624V178.544C106.999 178.736 106.703 178.888 106.319 179C105.951 179.128 105.511 179.192 104.999 179.192C104.455 179.192 103.943 179.104 103.463 178.928C102.999 178.752 102.615 178.36 102.311 177.752L99.4069 172.232C99.2309 171.88 99.0549 171.528 98.8789 171.176C98.7189 170.824 98.5589 170.472 98.3989 170.12C98.2389 169.752 98.0789 169.384 97.9189 169.016L94.4149 169.808V165.08C94.6069 164.808 94.9029 164.6 95.3029 164.456C95.7189 164.312 96.1669 164.24 96.6469 164.24C97.1749 164.24 97.6709 164.328 98.1349 164.504C98.6149 164.68 99.0069 165.064 99.3109 165.656L102.239 171.2C102.415 171.536 102.591 171.888 102.767 172.256C102.943 172.608 103.111 172.96 103.271 173.312C103.431 173.664 103.583 174.024 103.727 174.392L107.207 173.624ZM110.587 168.848H114.235V178.976C114.091 179.024 113.859 179.064 113.539 179.096C113.219 179.144 112.891 179.168 112.555 179.168C111.835 179.168 111.323 179.04 111.019 178.784C110.731 178.528 110.587 178.08 110.587 177.44V168.848ZM114.235 173.456H110.587V164.408C110.747 164.376 110.987 164.336 111.307 164.288C111.643 164.24 111.971 164.216 112.291 164.216C112.979 164.216 113.475 164.336 113.779 164.576C114.083 164.816 114.235 165.272 114.235 165.944V173.456ZM128.897 166.424C128.897 166.792 128.801 167.112 128.609 167.384C128.417 167.656 128.201 167.872 127.961 168.032C127.561 167.76 127.105 167.52 126.593 167.312C126.097 167.104 125.505 167 124.817 167C123.969 167 123.233 167.184 122.609 167.552C121.985 167.92 121.505 168.456 121.169 169.16C120.849 169.864 120.689 170.72 120.689 171.728C120.689 173.264 121.073 174.432 121.841 175.232C122.609 176.032 123.665 176.432 125.009 176.432C125.697 176.432 126.289 176.336 126.785 176.144C127.281 175.952 127.737 175.736 128.153 175.496C128.393 175.672 128.585 175.904 128.729 176.192C128.889 176.464 128.969 176.784 128.969 177.152C128.969 177.472 128.881 177.768 128.705 178.04C128.545 178.312 128.265 178.544 127.865 178.736C127.561 178.896 127.129 179.048 126.569 179.192C126.009 179.336 125.329 179.408 124.529 179.408C123.121 179.408 121.833 179.136 120.665 178.592C119.513 178.032 118.601 177.192 117.929 176.072C117.257 174.936 116.921 173.488 116.921 171.728C116.921 170.064 117.249 168.664 117.905 167.528C118.577 166.376 119.473 165.504 120.593 164.912C121.713 164.32 122.953 164.024 124.313 164.024C125.257 164.024 126.073 164.136 126.761 164.36C127.449 164.568 127.977 164.856 128.345 165.224C128.713 165.576 128.897 165.976 128.897 166.424ZM131.47 168.848H135.118V178.976C134.974 179.024 134.742 179.064 134.422 179.096C134.102 179.144 133.774 179.168 133.438 179.168C132.718 179.168 132.206 179.04 131.902 178.784C131.614 178.528 131.47 178.08 131.47 177.44V168.848ZM135.118 173.456H131.47V164.408C131.63 164.376 131.87 164.336 132.19 164.288C132.526 164.24 132.854 164.216 133.174 164.216C133.862 164.216 134.358 164.336 134.662 164.576C134.966 164.816 135.118 165.272 135.118 165.944V173.456ZM144.404 167.48H144.26C144.1 167.992 143.908 168.56 143.684 169.184C143.476 169.808 143.26 170.464 143.036 171.152C142.812 171.824 142.596 172.496 142.388 173.168L141.956 175.328C141.86 175.632 141.764 175.952 141.668 176.288C141.588 176.624 141.5 176.952 141.404 177.272C141.308 177.592 141.22 177.896 141.14 178.184C141.06 178.472 140.98 178.744 140.9 179C140.724 179.048 140.524 179.096 140.3 179.144C140.076 179.208 139.812 179.24 139.508 179.24C138.836 179.24 138.324 179.12 137.972 178.88C137.62 178.64 137.444 178.288 137.444 177.824C137.444 177.632 137.468 177.432 137.516 177.224C137.58 177.016 137.652 176.776 137.732 176.504C137.876 175.976 138.076 175.312 138.332 174.512C138.604 173.712 138.892 172.848 139.196 171.92C139.516 170.976 139.836 170.048 140.156 169.136C140.492 168.224 140.796 167.384 141.068 166.616C141.356 165.848 141.588 165.248 141.764 164.816C141.988 164.672 142.34 164.544 142.82 164.432C143.316 164.304 143.804 164.24 144.284 164.24C144.972 164.24 145.588 164.344 146.132 164.552C146.676 164.744 147.02 165.056 147.164 165.488C147.468 166.336 147.796 167.32 148.148 168.44C148.516 169.544 148.884 170.704 149.252 171.92C149.62 173.136 149.972 174.32 150.308 175.472C150.66 176.608 150.964 177.632 151.22 178.544C151.044 178.736 150.788 178.896 150.452 179.024C150.116 179.168 149.716 179.24 149.252 179.24C148.596 179.24 148.132 179.12 147.86 178.88C147.588 178.64 147.38 178.28 147.236 177.8L146.468 175.112L146.06 173.072C145.868 172.352 145.668 171.656 145.46 170.984C145.252 170.312 145.06 169.68 144.884 169.088C144.708 168.48 144.548 167.944 144.404 167.48ZM140.348 175.76L141.764 172.928H147.38L147.86 175.76H140.348ZM153.407 168.608L156.719 168.56C156.783 169.248 156.831 169.928 156.863 170.6C156.895 171.272 156.911 171.92 156.911 172.544C156.927 173.168 156.935 173.776 156.935 174.368V179C156.791 179.032 156.559 179.064 156.239 179.096C155.935 179.144 155.623 179.168 155.303 179.168C154.599 179.168 154.103 179.048 153.815 178.808C153.543 178.568 153.407 178.136 153.407 177.512V168.608ZM166.199 174.776L162.863 174.8C162.751 173.632 162.687 172.52 162.671 171.464C162.655 170.408 162.647 169.4 162.647 168.44V164.408C162.807 164.376 163.039 164.336 163.343 164.288C163.647 164.24 163.967 164.216 164.303 164.216C164.991 164.216 165.479 164.344 165.767 164.6C166.055 164.84 166.199 165.264 166.199 165.872V174.776ZM166.199 173.624V178.544C165.991 178.736 165.695 178.888 165.311 179C164.943 179.128 164.503 179.192 163.991 179.192C163.447 179.192 162.935 179.104 162.455 178.928C161.991 178.752 161.607 178.36 161.303 177.752L158.399 172.232C158.223 171.88 158.047 171.528 157.871 171.176C157.711 170.824 157.551 170.472 157.391 170.12C157.231 169.752 157.071 169.384 156.911 169.016L153.407 169.808V165.08C153.599 164.808 153.895 164.6 154.295 164.456C154.711 164.312 155.159 164.24 155.639 164.24C156.167 164.24 156.663 164.328 157.127 164.504C157.607 164.68 157.999 165.064 158.303 165.656L161.231 171.2C161.407 171.536 161.583 171.888 161.759 172.256C161.935 172.608 162.103 172.96 162.263 173.312C162.423 173.664 162.575 174.024 162.719 174.392L166.199 173.624ZM172.747 167.384L172.723 164.456H180.139C180.235 164.6 180.323 164.8 180.403 165.056C180.483 165.312 180.523 165.584 180.523 165.872C180.523 166.384 180.403 166.768 180.163 167.024C179.939 167.264 179.627 167.384 179.227 167.384H172.747ZM176.131 164.456L176.155 167.384H168.739C168.627 167.24 168.531 167.04 168.451 166.784C168.387 166.528 168.355 166.256 168.355 165.968C168.355 165.44 168.467 165.056 168.691 164.816C168.931 164.576 169.243 164.456 169.627 164.456H176.131ZM172.555 166.736H176.227V178.976C176.067 179.024 175.827 179.064 175.507 179.096C175.187 179.144 174.859 179.168 174.523 179.168C173.803 179.168 173.291 179.04 172.987 178.784C172.699 178.528 172.555 178.08 172.555 177.44V166.736ZM182.727 168.824H186.279V178.856C186.135 178.888 185.911 178.928 185.607 178.976C185.319 179.024 185.007 179.048 184.671 179.048C184.079 179.048 183.607 178.872 183.255 178.52C182.903 178.168 182.727 177.696 182.727 177.104V168.824ZM186.279 174.632H182.727V166.4C182.727 165.792 182.903 165.32 183.255 164.984C183.607 164.632 184.079 164.456 184.671 164.456C185.007 164.456 185.319 164.48 185.607 164.528C185.911 164.576 186.135 164.616 186.279 164.648V174.632ZM184.671 173.024V170.144H191.919C192.015 170.304 192.103 170.504 192.183 170.744C192.263 170.984 192.303 171.248 192.303 171.536C192.303 172.048 192.183 172.424 191.943 172.664C191.719 172.904 191.415 173.024 191.031 173.024H184.671ZM184.671 179.048V176.144H192.711C192.807 176.288 192.895 176.488 192.975 176.744C193.055 177 193.095 177.272 193.095 177.56C193.095 178.072 192.975 178.448 192.735 178.688C192.511 178.928 192.207 179.048 191.823 179.048H184.671ZM184.671 167.336V164.456H192.591C192.703 164.6 192.791 164.792 192.855 165.032C192.935 165.272 192.975 165.536 192.975 165.824C192.975 166.336 192.863 166.72 192.639 166.976C192.415 167.216 192.103 167.336 191.703 167.336H184.671Z" fill="black" fill-opacity="0.32" style="mix-blend-mode:darken"/>
</g>
<defs>
<filter id="filter0_dddd_142_780" x="13.9922" y="0.125" width="251.105" height="329.661" filterUnits="userSpaceOnUse" color-interpolation-filters="sRGB">
<feFlood flood-opacity="0" result="BackgroundImageFix"/>
<feColorMatrix in="SourceAlpha" type="matrix" values="0 0 0 0 0 0 0 0 0 0 0 0 0 0 0 0 0 0 127 0" result="hardAlpha"/>
<feOffset dy="5"/>
<feGaussianBlur stdDeviation="5.5"/>
<feColorMatrix type="matrix" values="0 0 0 0 0 0 0 0 0 0 0 0 0 0 0 0 0 0 0.24 0"/>
<feBlend mode="normal" in2="BackgroundImageFix" result="effect1_dropShadow_142_780"/>
<feColorMatrix in="SourceAlpha" type="matrix" values="0 0 0 0 0 0 0 0 0 0 0 0 0 0 0 0 0 0 127 0" result="hardAlpha"/>
<feOffset dy="21"/>
<feGaussianBlur stdDeviation="10.5"/>
<feColorMatrix type="matrix" values="0 0 0 0 0 0 0 0 0 0 0 0 0 0 0 0 0 0 0.21 0"/>
<feBlend mode="normal" in2="effect1_dropShadow_142_780" result="effect2_dropShadow_142_780"/>
<feColorMatrix in="SourceAlpha" type="matrix" values="0 0 0 0 0 0 0 0 0 0 0 0 0 0 0 0 0 0 127 0" result="hardAlpha"/>
<feOffset dy="46"/>
<feGaussianBlur stdDeviation="14"/>
<feColorMatrix type="matrix" values="0 0 0 0 0 0 0 0 0 0 0 0 0 0 0 0 0 0 0.12 0"/>
<feBlend mode="normal" in2="effect2_dropShadow_142_780" result="effect3_dropShadow_142_780"/>
<feColorMatrix in="SourceAlpha" type="matrix" values="0 0 0 0 0 0 0 0 0 0 0 0 0 0 0 0 0 0 127 0" result="hardAlpha"/>
<feOffset dy="82"/>
<feGaussianBlur stdDeviation="16.5"/>
<feColorMatrix type="matrix" values="0 0 0 0 0 0 0 0 0 0 0 0 0 0 0 0 0 0 0.04 0"/>
<feBlend mode="normal" in2="effect3_dropShadow_142_780" result="effect4_dropShadow_142_780"/>
<feBlend mode="normal" in="SourceGraphic" in2="effect4_dropShadow_142_780" result="shape"/>
</filter>
<filter id="filter1_d_142_780" x="38.9922" y="0.125" width="201.105" height="224.661" filterUnits="userSpaceOnUse" color-interpolation-filters="sRGB">
<feFlood flood-opacity="0" result="BackgroundImageFix"/>
<feColorMatrix in="SourceAlpha" type="matrix" values="0 0 0 0 0 0 0 0 0 0 0 0 0 0 0 0 0 0 127 0" result="hardAlpha"/>
<feOffset dy="2"/>
<feGaussianBlur stdDeviation="4"/>
<feColorMatrix type="matrix" values="0 0 0 0 0 0 0 0 0 0 0 0 0 0 0 0 0 0 0.16 0"/>
<feBlend mode="color-burn" in2="BackgroundImageFix" result="effect1_dropShadow_142_780"/>
<feBlend mode="normal" in="SourceGraphic" in2="effect1_dropShadow_142_780" result="shape"/>
</filter>
<filter id="filter2_dd_142_780" x="24" y="153" width="231.712" height="70" filterUnits="userSpaceOnUse" color-interpolation-filters="sRGB">
<feFlood flood-opacity="0" result="BackgroundImageFix"/>
<feColorMatrix in="SourceAlpha" type="matrix" values="0 0 0 0 0 0 0 0 0 0 0 0 0 0 0 0 0 0 127 0" result="hardAlpha"/>
<feOffset dy="4"/>
<feGaussianBlur stdDeviation="6"/>
<feColorMatrix type="matrix" values="0 0 0 0 0 0 0 0 0 0 0 0 0 0 0 0 0 0 0.16 0"/>
<feBlend mode="normal" in2="BackgroundImageFix" result="effect1_dropShadow_142_780"/>
<feColorMatrix in="SourceAlpha" type="matrix" values="0 0 0 0 0 0 0 0 0 0 0 0 0 0 0 0 0 0 127 0" result="hardAlpha"/>
<feOffset dy="2"/>
<feGaussianBlur stdDeviation="2"/>
<feColorMatrix type="matrix" values="0 0 0 0 0 0 0 0 0 0 0 0 0 0 0 0 0 0 0.24 0"/>
<feBlend mode="normal" in2="effect1_dropShadow_142_780" result="effect2_dropShadow_142_780"/>
<feBlend mode="normal" in="SourceGraphic" in2="effect2_dropShadow_142_780" result="shape"/>
</filter>
<filter id="filter3_dd_142_780" x="39.8555" y="141" width="200" height="70" filterUnits="userSpaceOnUse" color-interpolation-filters="sRGB">
<feFlood flood-opacity="0" result="BackgroundImageFix"/>
<feColorMatrix in="SourceAlpha" type="matrix" values="0 0 0 0 0 0 0 0 0 0 0 0 0 0 0 0 0 0 127 0" result="hardAlpha"/>
<feOffset dy="4"/>
<feGaussianBlur stdDeviation="6"/>
<feColorMatrix type="matrix" values="0 0 0 0 0 0 0 0 0 0 0 0 0 0 0 0 0 0 0.16 0"/>
<feBlend mode="normal" in2="BackgroundImageFix" result="effect1_dropShadow_142_780"/>
<feColorMatrix in="SourceAlpha" type="matrix" values="0 0 0 0 0 0 0 0 0 0 0 0 0 0 0 0 0 0 127 0" result="hardAlpha"/>
<feOffset dy="2"/>
<feGaussianBlur stdDeviation="2"/>
<feColorMatrix type="matrix" values="0 0 0 0 0 0 0 0 0 0 0 0 0 0 0 0 0 0 0.24 0"/>
<feBlend mode="normal" in2="effect1_dropShadow_142_780" result="effect2_dropShadow_142_780"/>
<feBlend mode="normal" in="SourceGraphic" in2="effect2_dropShadow_142_780" result="shape"/>
</filter>
<filter id="filter4_i_142_780" x="59.8555" y="169" width="6" height="7" filterUnits="userSpaceOnUse" color-interpolation-filters="sRGB">
<feFlood flood-opacity="0" result="BackgroundImageFix"/>
<feBlend mode="normal" in="SourceGraphic" in2="BackgroundImageFix" result="shape"/>
<feColorMatrix in="SourceAlpha" type="matrix" values="0 0 0 0 0 0 0 0 0 0 0 0 0 0 0 0 0 0 127 0" result="hardAlpha"/>
<feOffset dy="1"/>
<feGaussianBlur stdDeviation="1"/>
<feComposite in2="hardAlpha" operator="arithmetic" k2="-1" k3="1"/>
<feColorMatrix type="matrix" values="0 0 0 0 0 0 0 0 0 0 0 0 0 0 0 0 0 0 0.24 0"/>
<feBlend mode="darken" in2="shape" result="effect1_innerShadow_142_780"/>
</filter>
<filter id="filter5_i_142_780" x="213.855" y="169" width="6" height="7" filterUnits="userSpaceOnUse" color-interpolation-filters="sRGB">
<feFlood flood-opacity="0" result="BackgroundImageFix"/>
<feBlend mode="normal" in="SourceGraphic" in2="BackgroundImageFix" result="shape"/>
<feColorMatrix in="SourceAlpha" type="matrix" values="0 0 0 0 0 0 0 0 0 0 0 0 0 0 0 0 0 0 127 0" result="hardAlpha"/>
<feOffset dy="1"/>
<feGaussianBlur stdDeviation="1"/>
<feComposite in2="hardAlpha" operator="arithmetic" k2="-1" k3="1"/>
<feColorMatrix type="matrix" values="0 0 0 0 0 0 0 0 0 0 0 0 0 0 0 0 0 0 0.24 0"/>
<feBlend mode="darken" in2="shape" result="effect1_innerShadow_142_780"/>
</filter>
<filter id="filter6_i_142_780" x="87.3369" y="164.024" width="105.759" height="16.384" filterUnits="userSpaceOnUse" color-interpolation-filters="sRGB">
<feFlood flood-opacity="0" result="BackgroundImageFix"/>
<feBlend mode="normal" in="SourceGraphic" in2="BackgroundImageFix" result="shape"/>
<feColorMatrix in="SourceAlpha" type="matrix" values="0 0 0 0 0 0 0 0 0 0 0 0 0 0 0 0 0 0 127 0" result="hardAlpha"/>
<feOffset dy="1"/>
<feGaussianBlur stdDeviation="1"/>
<feComposite in2="hardAlpha" operator="arithmetic" k2="-1" k3="1"/>
<feColorMatrix type="matrix" values="0 0 0 0 0 0 0 0 0 0 0 0 0 0 0 0 0 0 0.24 0"/>
<feBlend mode="darken" in2="shape" result="effect1_innerShadow_142_780"/>
</filter>
<linearGradient id="paint0_linear_142_780" x1="139.426" y1="1.059" x2="139.426" y2="216.15" gradientUnits="userSpaceOnUse">
<stop stop-color="white"/>
<stop offset="1" stop-color="white" stop-opacity="0"/>
</linearGradient>
<radialGradient id="paint1_radial_142_780" cx="0" cy="0" r="1" gradientUnits="userSpaceOnUse" gradientTransform="translate(139.426 62.8406) rotate(90) scale(141.869 107.639)">
<stop stop-color="white"/>
<stop offset="1" stop-color="white" stop-opacity="0"/>
</radialGradient>
<linearGradient id="paint2_linear_142_780" x1="231.545" y1="9.95422" x2="231.545" y2="214.919" gradientUnits="userSpaceOnUse">
<stop stop-color="#49F0BC"/>
<stop offset="1" stop-color="#29DCCC"/>
</linearGradient>
<linearGradient id="paint3_linear_142_780" x1="138.426" y1="1.059" x2="138.426" y2="216.15" gradientUnits="userSpaceOnUse">
<stop stop-color="white"/>
<stop offset="1" stop-color="white" stop-opacity="0"/>
</linearGradient>
<radialGradient id="paint4_radial_142_780" cx="0" cy="0" r="1" gradientUnits="userSpaceOnUse" gradientTransform="translate(138.426 62.8406) rotate(90) scale(141.869 107.639)">
<stop stop-color="white"/>
<stop offset="1" stop-color="white" stop-opacity="0"/>
</radialGradient>
<linearGradient id="paint5_linear_142_780" x1="-0.574219" y1="-30.6694" x2="-0.574219" y2="249.331" gradientUnits="userSpaceOnUse">
<stop stop-color="white"/>
<stop offset="1" stop-color="white" stop-opacity="0.01"/>
</linearGradient>
<linearGradient id="paint6_linear_142_780" x1="139.545" y1="6.125" x2="139.545" y2="214.786" gradientUnits="userSpaceOnUse">
<stop stop-color="#EAB3B3"/>
<stop offset="1" stop-color="#713737"/>
</linearGradient>
<linearGradient id="paint7_linear_142_780" x1="139.856" y1="161" x2="139.856" y2="207" gradientUnits="userSpaceOnUse">
<stop stop-opacity="0"/>
<stop offset="1" stop-opacity="0.16"/>
</linearGradient>
<linearGradient id="paint8_linear_142_780" x1="139.856" y1="138" x2="139.856" y2="207" gradientUnits="userSpaceOnUse">
<stop stop-color="white"/>
<stop offset="1" stop-color="white" stop-opacity="0"/>
</linearGradient>
<radialGradient id="paint9_radial_142_780" cx="0" cy="0" r="1" gradientUnits="userSpaceOnUse" gradientTransform="translate(139.856 161) rotate(90) scale(46 193.221)">
<stop stop-color="white"/>
<stop offset="1" stop-color="white" stop-opacity="0"/>
</radialGradient>
<linearGradient id="paint10_linear_142_780" x1="139.855" y1="149" x2="139.855" y2="195" gradientUnits="userSpaceOnUse">
<stop stop-opacity="0"/>
<stop offset="1" stop-opacity="0.16"/>
</linearGradient>
<linearGradient id="paint11_linear_142_780" x1="139.855" y1="149" x2="139.855" y2="195" gradientUnits="userSpaceOnUse">
<stop stop-color="white"/>
<stop offset="1" stop-color="white" stop-opacity="0"/>
</linearGradient>
<radialGradient id="paint12_radial_142_780" cx="0" cy="0" r="1" gradientUnits="userSpaceOnUse" gradientTransform="translate(139.855 157.027) rotate(90) scale(37.9729 88)">
<stop stop-color="white"/>
<stop offset="1" stop-color="white" stop-opacity="0"/>
</radialGradient>
</defs>
</svg>
